<svg height="512pt" viewBox="0 0 512 512" width="512pt" xmlns="http://www.w3.org/2000/svg"><path d="m383 0v512h-383v-424.019531l87.980469-87.980469zm0 0" fill="#00a6ff"/><path d="m191.5 0h191.5v512h-191.5zm0 0" fill="#006ef5"/><path d="m512 64.058594v398.171875l-43.03125 49.769531h-15.71875l-43.03125-49.769531v-398.171875zm0 0" fill="#ff73af"/><path d="m512 64.058594v398.171875l-43.03125 49.769531h-7.859375v-447.941406zm0 0" fill="#ff318e"/><path d="m410.21875 134.148438h101.78125v30h-101.78125zm0 0" fill="#55fbff"/><path d="m410.21875 379.039062h101.78125v30h-101.78125zm0 0" fill="#55fbff"/><path d="m87.960938.0195312v87.9687498h-87.960938v-.007812zm0 0" fill="#cae8f9"/><path d="m92.289062 172.71875h198.421876v30h-198.421876zm0 0" fill="#fff"/><path d="m92.289062 237.328125h198.421876v30h-198.421876zm0 0" fill="#fff"/><path d="m92.289062 301.949219h198.421876v30h-198.421876zm0 0" fill="#fff"/><path d="m92.289062 366.558594h198.421876v30h-198.421876zm0 0" fill="#fff"/><path d="m461.109375 134.148438h50.890625v30h-50.890625zm0 0" fill="#00d9e0"/><path d="m461.109375 379.039062h50.890625v30h-50.890625zm0 0" fill="#00d9e0"/><g fill="#cae8f9"><path d="m191.5 172.71875h99.210938v30h-99.210938zm0 0"/><path d="m191.5 237.328125h99.210938v30h-99.210938zm0 0"/><path d="m191.5 301.949219h99.210938v30h-99.210938zm0 0"/><path d="m191.5 366.558594h99.210938v30h-99.210938zm0 0"/></g></svg>