<svg height="440pt" viewBox="0 -108 440 440" width="440pt" xmlns="http://www.w3.org/2000/svg"><path d="m440 184h-440v-168c0-8.835938 7.164062-16 16-16h288l80 72 56 24zm0 0" fill="#428dc5"/><g fill="#c0f5f9"><path d="m32 32h80v48h-80zm0 0"/><path d="m176 32h48v48h-48zm0 0"/><path d="m288 32v48h114.664062l-18.664062-8-44.449219-40zm0 0"/></g><path d="m368 72-44.449219-40h-35.550781v48h96v-1.144531zm0 0" fill="#b8eaee"/><path d="m136 0h16v184h-16zm0 0" fill="#277baa"/><path d="m264 176v-176h-16v176c0 4.417969 3.582031 8 8 8s8-3.582031 8-8zm0 0" fill="#277baa"/><path d="m408 112h32v16h-32zm0 0" fill="#fbb540"/><path d="m0 152h440v32h-440zm0 0" fill="#277baa"/><path d="m288 112h24v16h-24zm0 0" fill="#a8a8a8"/><path d="m104 184c0 17.671875-14.328125 32-32 32s-32-14.328125-32-32 14.328125-32 32-32 32 14.328125 32 32zm0 0" fill="#cdcdcd"/><path d="m400 184c0 17.671875-14.328125 32-32 32s-32-14.328125-32-32 14.328125-32 32-32 32 14.328125 32 32zm0 0" fill="#cdcdcd"/><path d="m72 224c-22.089844 0-40-17.910156-40-40s17.910156-40 40-40 40 17.910156 40 40c-.027344 22.082031-17.917969 39.972656-40 40zm0-64c-13.253906 0-24 10.746094-24 24s10.746094 24 24 24 24-10.746094 24-24-10.746094-24-24-24zm0 0" fill="#787d82"/><path d="m368 224c-22.089844 0-40-17.910156-40-40s17.910156-40 40-40 40 17.910156 40 40c-.027344 22.082031-17.917969 39.972656-40 40zm0-64c-13.253906 0-24 10.746094-24 24s10.746094 24 24 24 24-10.746094 24-24-10.746094-24-24-24zm0 0" fill="#787d82"/><path d="m72 196c-6.628906 0-12-5.371094-12-12s5.371094-12 12-12 12 5.371094 12 12-5.371094 12-12 12zm0 0" fill="#b9b9b9"/><path d="m368 196c-6.628906 0-12-5.371094-12-12s5.371094-12 12-12 12 5.371094 12 12-5.371094 12-12 12zm0 0" fill="#b9b9b9"/></svg>